#!OML:ASF E:\emotionWalksFemale\Project 1\Capture day 1\Session 1\Female1.ASF
:FULLY-SPECIFIED
:DEGREES
1065
root 9.21741 15.2044 -38.744 180.443 -194.195 -179.655
lowerback 10.1702 3.37771 0.733555
upperback -1.87343 4.50557 -1.36182
thorax -7.51648 2.13486 -2.58707
lowerneck 4.87893 -10.3942 -12.2935
upperneck -2.3583 -14.3812 12.3618
head 0.3174 -7.32718 5.60217
rclavicle -5.26345e-014 4.37326e-015
rhumerus -40.106 -6.59934 -79.9289
rradius 33.6053
rwrist 25.0708
rhand -1.80881 307.704
rfingers 7.12502
rthumb 23.8568 -440.835
lclavicle -5.26345e-014 4.37326e-015
lhumerus -56.6842 14.2872 72.7269
lradius 29.4465
lwrist -24.758
lhand 4.34333 -35.75
lfingers 7.12502
lthumb 29.7434 -8.1166
rfemur -10.5537 5.71475 26.4989
rtibia 34.4275
rfoot -27.132 -30.3513
rtoes 7.07395
lfemur -16.094 -19.7398 -19.824
ltibia 33.6902
lfoot -22.3852 6.293
ltoes -41.8351
1066
root 9.22659 15.2055 -38.7299 180.168 -194.839 -179.486
lowerback 9.97893 3.24354 0.591291
upperback -1.71396 4.2972 -1.5207
thorax -7.24359 2.04209 -2.62038
lowerneck 5.70626 -10.4093 -12.3973
upperneck -2.28708 -14.4985 12.3912
head 0.229234 -7.41064 5.67087
rclavicle 4.20243e-014 -1.66979e-014
rhumerus -40.744 -7.56246 -79.7107
rradius 32.5736
rwrist 26.0365
rhand 0.0783756 307.929
rfingers 7.12502
rthumb 25.6654 -440.361
lclavicle 4.20243e-014 -1.66979e-014
lhumerus -55.8913 13.5864 74.0114
lradius 29.7832
lwrist -24.5008
lhand 2.53662 -34.6315
lfingers 7.12502
lthumb 28.0177 -6.70305
rfemur -9.34871 7.08406 26.7624
rtibia 33.4121
rfoot -26.3825 -27.9517
rtoes 25.4236
lfemur -15.8072 -19.6682 -20.1165
ltibia 33.7114
lfoot -22.4429 5.47691
ltoes -42.0757
1067
root 9.24062 15.2077 -38.7171 179.837 -195.378 -179.347
lowerback 9.83186 3.14228 0.631861
upperback -1.54752 4.15407 -1.72769
thorax -6.96995 1.97253 -2.82012
lowerneck 6.41949 -10.372 -12.5018
upperneck -2.08059 -14.543 12.4695
head 0.194171 -7.45556 5.74593
rclavicle -7.5563e-014 2.38542e-015
rhumerus -41.6507 -8.66611 -79.3391
rradius 31.7824
rwrist 27.4325
rhand 2.88287 307.703
rfingers 7.12502
rthumb 28.3486 -440.171
lclavicle -7.5563e-014 2.38542e-015
lhumerus -55.2021 13.4473 74.0005
lradius 29.802
lwrist -23.0699
lhand 4.60509 -36.2485
lfingers 7.12502
lthumb 29.9932 -8.66
rfemur -8.32688 7.04782 26.919
rtibia 32.9074
rfoot -27.4611 -30.7788
rtoes 17.8872
lfemur -15.3687 -19.6313 -20.4101
ltibia 33.6064
lfoot -22.481 4.45444
ltoes -41.4732
1068
root 9.25557 15.2011 -38.7014 179.587 -195.584 -179.189
lowerback 9.53979 3.18324 0.588295
upperback -1.39143 4.19536 -1.884
thorax -6.62696 1.99945 -2.93782
lowerneck 6.93921 -10.4026 -12.5226
upperneck -1.69603 -14.6651 12.2366
head 0.222187 -7.52774 5.69514
rclavicle 3.3781e-014 -3.18055e-015
rhumerus -42.4928 -9.51239 -78.8875
rradius 31.154
rwrist 28.3919
rhand 6.71029 305.772
rfingers 7.12502
rthumb 31.9999 -441.434
lclavicle 3.3781e-014 -3.18055e-015
lhumerus -54.5766 13.0162 74.2531
lradius 30.0343
lwrist -21.8725
lhand 1.79307 -35.9396
lfingers 7.12502
lthumb 27.3067 -7.89708
rfemur -7.67246 7.03895 26.8525
rtibia 32.7985
rfoot -28.146 -33.216
rtoes 11.5982
lfemur -14.9019 -19.4572 -20.7366
ltibia 33.4116
lfoot -22.4211 3.73344
ltoes -41.2495
1069
root 9.27435 15.1917 -38.6794 179.425 -195.684 -178.926
lowerback 9.30325 3.24499 0.585141
upperback -1.3975 4.26428 -2.12077
thorax -6.47765 2.03255 -3.17762
lowerneck 7.51868 -10.4524 -12.4548
upperneck -1.12283 -14.822 11.7931
head 0.277962 -7.61538 5.56596
rclavicle 4.60932e-015 1.03368e-014
rhumerus -43.4736 -9.95735 -78.5423
rradius 30.689
rwrist 28.8987
rhand 9.87586 303.738
rfingers 7.12502
rthumb 35.0086 -442.816
lclavicle 4.60932e-015 1.03368e-014
lhumerus -54.2625 12.9615 73.6032
lradius 30.1234
lwrist -22.1564
lhand 0.00327823 -36.559
lfingers 7.12502
lthumb 25.5935 -8.25867
rfemur -7.12988 7.60094 26.5664
rtibia 32.657
rfoot -28.1535 -34.0829
rtoes 13.0525
lfemur -14.4697 -19.209 -21.2077
ltibia 33.2477
lfoot -22.3208 3.77945
ltoes -42.9345
